<?xml version="1.0" encoding="UTF-8" standalone="no"?>
<!DOCTYPE svg PUBLIC "-//W3C//DTD SVG 1.1//EN"
 "http://www.w3.org/Graphics/SVG/1.1/DTD/svg11.dtd">
<!-- Generated by graphviz version 13.1.0 (20250701.0955)
 -->
<!-- Title: at24cxx driver function Pages: 1 -->
<svg width="277pt" height="240pt"
 viewBox="0.00 0.00 277.00 240.00" xmlns="http://www.w3.org/2000/svg" xmlns:xlink="http://www.w3.org/1999/xlink">
<g id="graph0" class="graph" transform="scale(1 1) rotate(0) translate(4 236)">
<title>at24cxx driver function</title>
<!-- Node3 -->
<g id="Node000003" class="node">
<title>Node3</title>
<g id="a_Node000003"><a xlink:href="group__at24cxx__base__driver.html" target="_top" xlink:title="at24cxx base driver modules">
<polygon fill="white" stroke="#666666" points="260.75,-232 159.25,-232 159.25,-200 260.75,-200 260.75,-232"/>
<text xml:space="preserve" text-anchor="start" x="167.25" y="-218.5" font-family="Helvetica,sans-Serif" font-size="10.00">at24cxx base driver</text>
<text xml:space="preserve" text-anchor="middle" x="210" y="-206.5" font-family="Helvetica,sans-Serif" font-size="10.00"> function</text>
</a>
</g>
</g>
<!-- Node1 -->
<g id="Node000001" class="node">
<title>Node1</title>
<g id="a_Node000001"><a xlink:title="at24cxx driver modules">
<polygon fill="#999999" stroke="#666666" points="115,-126 0,-126 0,-106 115,-106 115,-126"/>
<text xml:space="preserve" text-anchor="middle" x="57.5" y="-112.5" font-family="Helvetica,sans-Serif" font-size="10.00">at24cxx driver function</text>
</a>
</g>
</g>
<!-- Node1&#45;&gt;Node3 -->
<g id="edge2" class="edge">
<title>Node1&#45;&gt;Node3</title>
<path fill="none" stroke="black" d="M77.54,-134.07C95.46,-150.42 123.59,-174.41 151,-191 156.07,-194.07 161.58,-196.95 167.12,-199.59"/>
<polygon fill="black" stroke="black" points="79.97,-131.55 70.26,-127.32 75.21,-136.69 79.97,-131.55"/>
</g>
<!-- Node5 -->
<g id="Node000005" class="node">
<title>Node5</title>
<g id="a_Node000005"><a xlink:href="group__at24cxx__example__driver.html" target="_top" xlink:title="at24cxx example driver modules">
<polygon fill="white" stroke="#666666" points="268.62,-182 151.38,-182 151.38,-150 268.62,-150 268.62,-182"/>
<text xml:space="preserve" text-anchor="start" x="159.38" y="-168.5" font-family="Helvetica,sans-Serif" font-size="10.00">at24cxx example driver</text>
<text xml:space="preserve" text-anchor="middle" x="210" y="-156.5" font-family="Helvetica,sans-Serif" font-size="10.00"> function</text>
</a>
</g>
</g>
<!-- Node1&#45;&gt;Node5 -->
<g id="edge4" class="edge">
<title>Node1&#45;&gt;Node5</title>
<path fill="none" stroke="black" d="M100.92,-130.09C119.12,-136.14 140.5,-143.24 159.42,-149.53"/>
<polygon fill="black" stroke="black" points="102.08,-126.79 91.49,-126.96 99.87,-133.43 102.08,-126.79"/>
</g>
<!-- Node4 -->
<g id="Node000004" class="node">
<title>Node4</title>
<g id="a_Node000004"><a xlink:href="group__at24cxx__interface__driver.html" target="_top" xlink:title="at24cxx interface driver modules">
<polygon fill="white" stroke="#666666" points="269,-132 151,-132 151,-100 269,-100 269,-132"/>
<text xml:space="preserve" text-anchor="start" x="159" y="-118.5" font-family="Helvetica,sans-Serif" font-size="10.00">at24cxx interface driver</text>
<text xml:space="preserve" text-anchor="middle" x="210" y="-106.5" font-family="Helvetica,sans-Serif" font-size="10.00"> function</text>
</a>
</g>
</g>
<!-- Node1&#45;&gt;Node4 -->
<g id="edge3" class="edge">
<title>Node1&#45;&gt;Node4</title>
<path fill="none" stroke="black" d="M126.86,-116C134.76,-116 142.77,-116 150.52,-116"/>
<polygon fill="black" stroke="black" points="126.91,-112.5 116.91,-116 126.91,-119.5 126.91,-112.5"/>
</g>
<!-- Node2 -->
<g id="Node000002" class="node">
<title>Node2</title>
<g id="a_Node000002"><a xlink:href="group__at24cxx__link__driver.html" target="_top" xlink:title="at24cxx link driver modules">
<polygon fill="white" stroke="#666666" points="257.75,-82 162.25,-82 162.25,-50 257.75,-50 257.75,-82"/>
<text xml:space="preserve" text-anchor="start" x="170.25" y="-68.5" font-family="Helvetica,sans-Serif" font-size="10.00">at24cxx link driver</text>
<text xml:space="preserve" text-anchor="middle" x="210" y="-56.5" font-family="Helvetica,sans-Serif" font-size="10.00"> function</text>
</a>
</g>
</g>
<!-- Node1&#45;&gt;Node2 -->
<g id="edge1" class="edge">
<title>Node1&#45;&gt;Node2</title>
<path fill="none" stroke="black" d="M100.77,-101.96C119.76,-95.65 142.23,-88.18 161.76,-81.69"/>
<polygon fill="black" stroke="black" points="99.87,-98.57 91.49,-105.04 102.08,-105.21 99.87,-98.57"/>
</g>
<!-- Node6 -->
<g id="Node000006" class="node">
<title>Node6</title>
<g id="a_Node000006"><a xlink:href="group__at24cxx__test__driver.html" target="_top" xlink:title="at24cxx test driver modules">
<polygon fill="white" stroke="#666666" points="258.5,-32 161.5,-32 161.5,0 258.5,0 258.5,-32"/>
<text xml:space="preserve" text-anchor="start" x="169.5" y="-18.5" font-family="Helvetica,sans-Serif" font-size="10.00">at24cxx test driver</text>
<text xml:space="preserve" text-anchor="middle" x="210" y="-6.5" font-family="Helvetica,sans-Serif" font-size="10.00"> function</text>
</a>
</g>
</g>
<!-- Node1&#45;&gt;Node6 -->
<g id="edge5" class="edge">
<title>Node1&#45;&gt;Node6</title>
<path fill="none" stroke="black" d="M77.54,-97.93C95.46,-81.58 123.59,-57.59 151,-41 156.07,-37.93 161.58,-35.05 167.12,-32.41"/>
<polygon fill="black" stroke="black" points="75.21,-95.31 70.26,-104.68 79.97,-100.45 75.21,-95.31"/>
</g>
</g>
</svg>
