<?xml version="1.0" encoding="UTF-8" standalone="no"?>
<!DOCTYPE svg PUBLIC "-//W3C//DTD SVG 1.1//EN"
 "http://www.w3.org/Graphics/SVG/1.1/DTD/svg11.dtd">
<!-- Generated by graphviz version 13.1.0 (20250701.0955)
 -->
<!-- Title: at24cxx_basic_init Pages: 1 -->
<svg width="282pt" height="468pt"
 viewBox="0.00 0.00 282.00 468.00" xmlns="http://www.w3.org/2000/svg" xmlns:xlink="http://www.w3.org/1999/xlink">
<g id="graph0" class="graph" transform="scale(1 1) rotate(0) translate(4 464)">
<title>at24cxx_basic_init</title>
<!-- Node1 -->
<g id="Node000001" class="node">
<title>Node1</title>
<g id="a_Node000001"><a xlink:title="basic example init">
<polygon fill="#999999" stroke="#666666" points="97,-246 0,-246 0,-226 97,-226 97,-246"/>
<text xml:space="preserve" text-anchor="middle" x="48.5" y="-232.5" font-family="Helvetica,sans-Serif" font-size="10.00">at24cxx_basic_init</text>
</a>
</g>
</g>
<!-- Node2 -->
<g id="Node000002" class="node">
<title>Node2</title>
<g id="a_Node000002"><a xlink:href="group__at24cxx__base__driver.html#ga5a4546e035584df18c7cfa2e7346f905" target="_top" xlink:title="initialize the chip">
<polygon fill="white" stroke="#666666" points="237.5,-460 169,-460 169,-440 237.5,-440 237.5,-460"/>
<text xml:space="preserve" text-anchor="middle" x="203.25" y="-446.5" font-family="Helvetica,sans-Serif" font-size="10.00">at24cxx_init</text>
</a>
</g>
</g>
<!-- Node1&#45;&gt;Node2 -->
<g id="edge1_Node000001_Node000002" class="edge">
<title>Node1&#45;&gt;Node2</title>
<g id="a_edge1_Node000001_Node000002"><a xlink:title=" ">
<path fill="none" stroke="#63b8ff" d="M50.77,-246.29C55.33,-278.69 73.87,-379.45 133,-431 140.01,-437.12 148.83,-441.28 157.79,-444.11"/>
<polygon fill="#63b8ff" stroke="#63b8ff" points="156.67,-447.44 167.23,-446.56 158.43,-440.66 156.67,-447.44"/>
</a>
</g>
</g>
<!-- Node3 -->
<g id="Node000003" class="node">
<title>Node3</title>
<g id="a_Node000003"><a xlink:href="group__at24cxx__interface__driver.html#ga6d221cad6d9994b22c20214e5c8a9f0b" target="_top" xlink:title="interface print format data">
<polygon fill="white" stroke="#666666" points="265.62,-422 140.88,-422 140.88,-390 265.62,-390 265.62,-422"/>
<text xml:space="preserve" text-anchor="start" x="148.88" y="-408.5" font-family="Helvetica,sans-Serif" font-size="10.00">at24cxx_interface_debug</text>
<text xml:space="preserve" text-anchor="middle" x="203.25" y="-396.5" font-family="Helvetica,sans-Serif" font-size="10.00">_print</text>
</a>
</g>
</g>
<!-- Node1&#45;&gt;Node3 -->
<g id="edge2_Node000001_Node000003" class="edge">
<title>Node1&#45;&gt;Node3</title>
<g id="a_edge2_Node000001_Node000003"><a xlink:title=" ">
<path fill="none" stroke="#63b8ff" d="M52.69,-246.42C61.27,-272.78 87.35,-342.76 133,-381 134.1,-381.92 135.24,-382.81 136.41,-383.67"/>
<polygon fill="#63b8ff" stroke="#63b8ff" points="134.31,-386.48 144.63,-388.85 138.03,-380.56 134.31,-386.48"/>
</a>
</g>
</g>
<!-- Node4 -->
<g id="Node000004" class="node">
<title>Node4</title>
<g id="a_Node000004"><a xlink:href="group__at24cxx__interface__driver.html#ga9facfd3df0bf2e69af272483aa57641e" target="_top" xlink:title="interface delay ms">
<polygon fill="white" stroke="#666666" points="273.5,-372 133,-372 133,-352 273.5,-352 273.5,-372"/>
<text xml:space="preserve" text-anchor="middle" x="203.25" y="-358.5" font-family="Helvetica,sans-Serif" font-size="10.00">at24cxx_interface_delay_ms</text>
</a>
</g>
</g>
<!-- Node1&#45;&gt;Node4 -->
<g id="edge3_Node000001_Node000004" class="edge">
<title>Node1&#45;&gt;Node4</title>
<g id="a_edge3_Node000001_Node000004"><a xlink:title=" ">
<path fill="none" stroke="#63b8ff" d="M54.61,-246.33C65.75,-267.77 94.38,-317.25 133,-343 135.11,-344.4 137.32,-345.71 139.6,-346.91"/>
<polygon fill="#63b8ff" stroke="#63b8ff" points="138.04,-350.05 148.59,-350.98 140.92,-343.67 138.04,-350.05"/>
</a>
</g>
</g>
<!-- Node5 -->
<g id="Node000005" class="node">
<title>Node5</title>
<g id="a_Node000005"><a xlink:href="group__at24cxx__interface__driver.html#ga5c1a36bf33c79f5e09e73aad53d3d82b" target="_top" xlink:title="interface iic bus deinit">
<polygon fill="white" stroke="#666666" points="257.38,-334 149.12,-334 149.12,-302 257.38,-302 257.38,-334"/>
<text xml:space="preserve" text-anchor="start" x="157.12" y="-320.5" font-family="Helvetica,sans-Serif" font-size="10.00">at24cxx_interface_iic</text>
<text xml:space="preserve" text-anchor="middle" x="203.25" y="-308.5" font-family="Helvetica,sans-Serif" font-size="10.00">_deinit</text>
</a>
</g>
</g>
<!-- Node1&#45;&gt;Node5 -->
<g id="edge4_Node000001_Node000005" class="edge">
<title>Node1&#45;&gt;Node5</title>
<g id="a_edge4_Node000001_Node000005"><a xlink:title=" ">
<path fill="none" stroke="#63b8ff" d="M62.44,-246.38C78.33,-258.74 106.43,-279.41 133,-293 135.83,-294.45 138.76,-295.85 141.75,-297.2"/>
<polygon fill="#63b8ff" stroke="#63b8ff" points="140.09,-300.3 150.66,-301 142.83,-293.86 140.09,-300.3"/>
</a>
</g>
</g>
<!-- Node6 -->
<g id="Node000006" class="node">
<title>Node6</title>
<g id="a_Node000006"><a xlink:href="group__at24cxx__interface__driver.html#ga040d36316925e78b85232ca230d0fcda" target="_top" xlink:title="interface iic bus init">
<polygon fill="white" stroke="#666666" points="266.38,-284 140.12,-284 140.12,-264 266.38,-264 266.38,-284"/>
<text xml:space="preserve" text-anchor="middle" x="203.25" y="-270.5" font-family="Helvetica,sans-Serif" font-size="10.00">at24cxx_interface_iic_init</text>
</a>
</g>
</g>
<!-- Node1&#45;&gt;Node6 -->
<g id="edge5_Node000001_Node000006" class="edge">
<title>Node1&#45;&gt;Node6</title>
<g id="a_edge5_Node000001_Node000006"><a xlink:title=" ">
<path fill="none" stroke="#63b8ff" d="M91.64,-246.48C109.42,-250.91 130.33,-256.11 149.14,-260.79"/>
<polygon fill="#63b8ff" stroke="#63b8ff" points="148.23,-264.17 158.77,-263.18 149.92,-257.37 148.23,-264.17"/>
</a>
</g>
</g>
<!-- Node7 -->
<g id="Node000007" class="node">
<title>Node7</title>
<g id="a_Node000007"><a xlink:href="group__at24cxx__interface__driver.html#ga910eb10a77907e142a949522d03a5f74" target="_top" xlink:title="interface iic bus read">
<polygon fill="white" stroke="#666666" points="269.38,-246 137.12,-246 137.12,-226 269.38,-226 269.38,-246"/>
<text xml:space="preserve" text-anchor="middle" x="203.25" y="-232.5" font-family="Helvetica,sans-Serif" font-size="10.00">at24cxx_interface_iic_read</text>
</a>
</g>
</g>
<!-- Node1&#45;&gt;Node7 -->
<g id="edge6_Node000001_Node000007" class="edge">
<title>Node1&#45;&gt;Node7</title>
<g id="a_edge6_Node000001_Node000007"><a xlink:title=" ">
<path fill="none" stroke="#63b8ff" d="M97.41,-236C106.4,-236 116.01,-236 125.62,-236"/>
<polygon fill="#63b8ff" stroke="#63b8ff" points="125.36,-239.5 135.36,-236 125.36,-232.5 125.36,-239.5"/>
</a>
</g>
</g>
<!-- Node8 -->
<g id="Node000008" class="node">
<title>Node8</title>
<g id="a_Node000008"><a xlink:href="group__at24cxx__interface__driver.html#gaebaade8ac31d583dc18e255b403819a5" target="_top" xlink:title="interface iic bus read with 16 bits register address">
<polygon fill="white" stroke="#666666" points="257.38,-208 149.12,-208 149.12,-176 257.38,-176 257.38,-208"/>
<text xml:space="preserve" text-anchor="start" x="157.12" y="-194.5" font-family="Helvetica,sans-Serif" font-size="10.00">at24cxx_interface_iic</text>
<text xml:space="preserve" text-anchor="middle" x="203.25" y="-182.5" font-family="Helvetica,sans-Serif" font-size="10.00">_read_address16</text>
</a>
</g>
</g>
<!-- Node1&#45;&gt;Node8 -->
<g id="edge7_Node000001_Node000008" class="edge">
<title>Node1&#45;&gt;Node8</title>
<g id="a_edge7_Node000001_Node000008"><a xlink:title=" ">
<path fill="none" stroke="#63b8ff" d="M85.7,-225.57C101.26,-221.09 119.93,-215.71 137.73,-210.59"/>
<polygon fill="#63b8ff" stroke="#63b8ff" points="138.56,-213.99 147.2,-207.86 136.62,-207.26 138.56,-213.99"/>
</a>
</g>
</g>
<!-- Node9 -->
<g id="Node000009" class="node">
<title>Node9</title>
<g id="a_Node000009"><a xlink:href="group__at24cxx__interface__driver.html#ga535cf785021335723e078c93259990b3" target="_top" xlink:title="interface iic bus write">
<polygon fill="white" stroke="#666666" points="257.38,-158 149.12,-158 149.12,-126 257.38,-126 257.38,-158"/>
<text xml:space="preserve" text-anchor="start" x="157.12" y="-144.5" font-family="Helvetica,sans-Serif" font-size="10.00">at24cxx_interface_iic</text>
<text xml:space="preserve" text-anchor="middle" x="203.25" y="-132.5" font-family="Helvetica,sans-Serif" font-size="10.00">_write</text>
</a>
</g>
</g>
<!-- Node1&#45;&gt;Node9 -->
<g id="edge8_Node000001_Node000009" class="edge">
<title>Node1&#45;&gt;Node9</title>
<g id="a_edge8_Node000001_Node000009"><a xlink:title=" ">
<path fill="none" stroke="#63b8ff" d="M59.43,-225.8C74.26,-211.07 103.6,-183.78 133,-167 135.34,-165.66 137.77,-164.38 140.25,-163.14"/>
<polygon fill="#63b8ff" stroke="#63b8ff" points="141.67,-166.34 149.3,-158.99 138.75,-159.98 141.67,-166.34"/>
</a>
</g>
</g>
<!-- Node10 -->
<g id="Node000010" class="node">
<title>Node10</title>
<g id="a_Node000010"><a xlink:href="group__at24cxx__interface__driver.html#ga37e65bdb15b03167ab338822b54192ae" target="_top" xlink:title="interface iic bus write with 16 bits register address">
<polygon fill="white" stroke="#666666" points="257.38,-108 149.12,-108 149.12,-76 257.38,-76 257.38,-108"/>
<text xml:space="preserve" text-anchor="start" x="157.12" y="-94.5" font-family="Helvetica,sans-Serif" font-size="10.00">at24cxx_interface_iic</text>
<text xml:space="preserve" text-anchor="middle" x="203.25" y="-82.5" font-family="Helvetica,sans-Serif" font-size="10.00">_write_address16</text>
</a>
</g>
</g>
<!-- Node1&#45;&gt;Node10 -->
<g id="edge9_Node000001_Node000010" class="edge">
<title>Node1&#45;&gt;Node10</title>
<g id="a_edge9_Node000001_Node000010"><a xlink:title=" ">
<path fill="none" stroke="#63b8ff" d="M53.98,-225.81C64.49,-203.04 92.9,-147.66 133,-117 134.94,-115.52 136.97,-114.12 139.08,-112.8"/>
<polygon fill="#63b8ff" stroke="#63b8ff" points="140.3,-116.12 147.36,-108.22 136.92,-109.99 140.3,-116.12"/>
</a>
</g>
</g>
<!-- Node11 -->
<g id="Node000011" class="node">
<title>Node11</title>
<g id="a_Node000011"><a xlink:href="group__at24cxx__base__driver.html#gaf11abd0b4e0c0c66d23830896923089c" target="_top" xlink:title="set the chip address pin">
<polygon fill="white" stroke="#666666" points="258.88,-58 147.62,-58 147.62,-38 258.88,-38 258.88,-58"/>
<text xml:space="preserve" text-anchor="middle" x="203.25" y="-44.5" font-family="Helvetica,sans-Serif" font-size="10.00">at24cxx_set_addr_pin</text>
</a>
</g>
</g>
<!-- Node1&#45;&gt;Node11 -->
<g id="edge10_Node000001_Node000011" class="edge">
<title>Node1&#45;&gt;Node11</title>
<g id="a_edge10_Node000001_Node000011"><a xlink:title=" ">
<path fill="none" stroke="#63b8ff" d="M51.48,-225.83C57.76,-196.44 79.99,-110.74 133,-67 134.32,-65.91 135.7,-64.88 137.13,-63.91"/>
<polygon fill="#63b8ff" stroke="#63b8ff" points="138.79,-66.99 145.82,-59.06 135.38,-60.88 138.79,-66.99"/>
</a>
</g>
</g>
<!-- Node12 -->
<g id="Node000012" class="node">
<title>Node12</title>
<g id="a_Node000012"><a xlink:href="group__at24cxx__base__driver.html#ga010fee3088dd876f85a9f62d3565ed80" target="_top" xlink:title="set the chip type">
<polygon fill="white" stroke="#666666" points="249.88,-20 156.62,-20 156.62,0 249.88,0 249.88,-20"/>
<text xml:space="preserve" text-anchor="middle" x="203.25" y="-6.5" font-family="Helvetica,sans-Serif" font-size="10.00">at24cxx_set_type</text>
</a>
</g>
</g>
<!-- Node1&#45;&gt;Node12 -->
<g id="edge11_Node000001_Node000012" class="edge">
<title>Node1&#45;&gt;Node12</title>
<g id="a_edge11_Node000001_Node000012"><a xlink:title=" ">
<path fill="none" stroke="#63b8ff" d="M50.5,-225.57C54.33,-191.75 71.07,-84.15 133,-29 136.82,-25.6 141.2,-22.8 145.85,-20.49"/>
<polygon fill="#63b8ff" stroke="#63b8ff" points="147.04,-23.79 154.98,-16.77 144.4,-17.31 147.04,-23.79"/>
</a>
</g>
</g>
</g>
</svg>
